{
    "asset" : {
        "generator" : "Khronos glTF Blender I/O v1.8.19",
        "version" : "2.0"
    },
    "scene" : 0,
    "scenes" : [
        {
            "name" : "Scene",
            "nodes" : [
                0,
                1
            ]
        }
    ],
    "nodes" : [
        {
            "mesh" : 0,
            "name" : "Curve.004",
            "rotation" : [
                0.4853177070617676,
                0.514263391494751,
                -0.5142633318901062,
                0.48531773686408997
            ],
            "scale" : [
                31.92478370666504,
                31.92478370666504,
                31.92478370666504
            ],
            "translation" : [
                -0.6362380981445312,
                -0.36218559741973877,
                0.24009132385253906
            ]
        },
        {
            "mesh" : 1,
            "name" : "Curve",
            "rotation" : [
                0.4104749262332916,
                0.6733253598213196,
                -0.4043428301811218,
                0.4633035361766815
            ],
            "scale" : [
                61.93252944946289,
                -6.524507522583008,
                62.03567123413086
            ],
            "translation" : [
                -0.5332299470901489,
                -0.3048711121082306,
                0.41144052147865295
            ]
        }
    ],
    "materials" : [
        {
            "doubleSided" : true,
            "name" : "Material",
            "pbrMetallicRoughness" : {
                "baseColorFactor" : [
                    0.8000000715255737,
                    0,
                    0.4338662028312683,
                    1
                ],
                "metallicFactor" : 0.769759476184845,
                "roughnessFactor" : 0
            }
        },
        {
            "doubleSided" : true,
            "name" : "Material.001",
            "pbrMetallicRoughness" : {
                "baseColorFactor" : [
                    0.6149219870567322,
                    0.5926865339279175,
                    0.650009036064148,
                    1
                ],
                "metallicFactor" : 0.8247422575950623,
                "roughnessFactor" : 0
            }
        }
    ],
    "meshes" : [
        {
            "name" : "Curve.004",
            "primitives" : [
                {
                    "attributes" : {
                        "POSITION" : 0,
                        "NORMAL" : 1,
                        "TEXCOORD_0" : 2
                    },
                    "indices" : 3,
                    "material" : 0
                }
            ]
        },
        {
            "name" : "Curve",
            "primitives" : [
                {
                    "attributes" : {
                        "POSITION" : 4,
                        "NORMAL" : 5,
                        "TEXCOORD_0" : 6
                    },
                    "indices" : 7,
                    "material" : 1
                }
            ]
        }
    ],
    "accessors" : [
        {
            "bufferView" : 0,
            "componentType" : 5126,
            "count" : 3014,
            "max" : [
                0.025171533226966858,
                0.012732813134789467,
                0.007122118026018143
            ],
            "min" : [
                -0.02559351921081543,
                -0.012732816860079765,
                -0.007224172353744507
            ],
            "type" : "VEC3"
        },
        {
            "bufferView" : 1,
            "componentType" : 5126,
            "count" : 3014,
            "type" : "VEC3"
        },
        {
            "bufferView" : 2,
            "componentType" : 5126,
            "count" : 3014,
            "type" : "VEC2"
        },
        {
            "bufferView" : 3,
            "componentType" : 5123,
            "count" : 4332,
            "type" : "SCALAR"
        },
        {
            "bufferView" : 4,
            "componentType" : 5126,
            "count" : 2291,
            "max" : [
                0.028953060507774353,
                0.025465629994869232,
                0.01266966387629509
            ],
            "min" : [
                -0.02217291295528412,
                0,
                -0.011220589280128479
            ],
            "type" : "VEC3"
        },
        {
            "bufferView" : 5,
            "componentType" : 5126,
            "count" : 2291,
            "type" : "VEC3"
        },
        {
            "bufferView" : 6,
            "componentType" : 5126,
            "count" : 2291,
            "type" : "VEC2"
        },
        {
            "bufferView" : 7,
            "componentType" : 5123,
            "count" : 3624,
            "type" : "SCALAR"
        }
    ],
    "bufferViews" : [
        {
            "buffer" : 0,
            "byteLength" : 36168,
            "byteOffset" : 0
        },
        {
            "buffer" : 0,
            "byteLength" : 36168,
            "byteOffset" : 36168
        },
        {
            "buffer" : 0,
            "byteLength" : 24112,
            "byteOffset" : 72336
        },
        {
            "buffer" : 0,
            "byteLength" : 8664,
            "byteOffset" : 96448
        },
        {
            "buffer" : 0,
            "byteLength" : 27492,
            "byteOffset" : 105112
        },
        {
            "buffer" : 0,
            "byteLength" : 27492,
            "byteOffset" : 132604
        },
        {
            "buffer" : 0,
            "byteLength" : 18328,
            "byteOffset" : 160096
        },
        {
            "buffer" : 0,
            "byteLength" : 7248,
            "byteOffset" : 178424
        }
    ],
    "buffers" : [
        {
            "byteLength" : 185672,
            "uri" : "data:application/octet-stream;base64,"
        }
    ]
}
